<?xml version="1.0" encoding="UTF-8"?>
<svg width="13px" height="15px" viewBox="0 0 13 15" version="1.1" xmlns="http://www.w3.org/2000/svg" xmlns:xlink="http://www.w3.org/1999/xlink">
    <!-- Generator: Sketch 48.2 (47327) - http://www.bohemiancoding.com/sketch -->
    <title>Fill 1</title>
    <desc>Created with Sketch.</desc>
    <defs></defs>
    <g id="1-menu-1200" stroke="none" stroke-width="1" fill="none" fill-rule="evenodd" transform="translate(-952.000000, -25.000000)">
        <g id="Group" transform="translate(826.000000, 21.000000)" fill="#FFFFFF">
            <g id="товары" transform="translate(126.000000, 0.000000)">
                <g id="Page-1" transform="translate(0.000000, 4.000000)">
                    <path d="M11.9545525,5.50783786 L9.9406026,5.50783786 L10.2449216,6.88024427 L11.9545525,6.68405741 L11.9545525,5.50783786 Z M12.0118286,13.651035 C12.0118286,14.3905224 11.4988607,15 10.8338906,15 C10.1689205,15 9.6372277,14.3905224 9.6372277,13.651035 C9.6372277,12.8884668 10.1689205,12.2788089 10.8338906,12.2788089 C11.4988607,12.2788089 12.0118286,12.8884668 12.0118286,13.651035 Z M11.9545525,3.24375496 L9.50426515,3.24375496 L9.78844309,4.72507393 L11.9545525,4.72507393 L11.9545525,3.24375496 Z M9.61803074,6.98897651 L9.23834006,5.50783786 L7.43319646,5.50783786 L7.90761312,7.18516337 L9.61803074,6.98897651 Z M6.84391274,3.24375496 L7.24280038,4.72507393 L9.12363036,4.72507393 L8.8200981,3.24375496 L6.84391274,3.24375496 Z M7.24280038,7.27171639 L6.74902941,5.50783786 L4.94404316,5.50783786 L5.72340825,7.44608468 L7.24280038,7.27171639 Z M4.65970787,4.72507393 L6.5778303,4.72507393 L6.16053246,3.24375496 L4.07042415,3.24375496 L4.65970787,4.72507393 Z M3.97554082,13.651035 C3.97554082,14.3905224 3.46273024,15 2.7788779,15 C2.13294742,15 1.60093988,14.3905224 1.60093988,13.651035 C1.60093988,12.8884668 2.13294742,12.2788089 2.7788779,12.2788089 C3.46273024,12.2788089 3.97554082,12.8884668 3.97554082,13.651035 Z M12.1638308,2.02498016 C12.7339176,2.02498016 13,2.41609165 13,2.89628062 L13,6.96697762 C13,7.4242661 12.695681,7.79482124 12.2969507,7.83773712 L4.62131395,8.81740918 C3.99473778,8.90450316 3.91826465,9.84053807 4.65970787,9.84053807 L11.9361423,9.84053807 C12.7713674,9.84053807 12.7713674,11.2558604 11.9361423,11.2558604 L4.50739101,11.2558604 C2.83552466,11.2558604 2.20863379,9.14432717 3.51937701,8.03374366 L4.18434709,7.46790325 L1.8286284,1.56769168 L0.670202046,1.56769168 C-0.223400682,1.56769168 -0.223400682,0 0.670202046,0 L2.01902448,0 C2.70240476,0 2.89264349,0.370374823 3.10129241,0.936215229 L3.57681053,2.02498016 L12.1638308,2.02498016 Z" id="Fill-1"></path>
                </g>
            </g>
        </g>
    </g>
</svg>