<?xml version="1.0" encoding="UTF-8"?>
<svg width="36px" height="25px" viewBox="0 0 36 25" version="1.1" xmlns="http://www.w3.org/2000/svg" xmlns:xlink="http://www.w3.org/1999/xlink">
    <!-- Generator: Sketch 48.2 (47327) - http://www.bohemiancoding.com/sketch -->
    <title>Fill 1</title>
    <desc>Created with Sketch.</desc>
    <defs></defs>
    <g id="турка" stroke="none" stroke-width="1" fill="none" fill-rule="evenodd" transform="translate(-5.000000, -3.000000)">
        <g id="Page-1" transform="translate(5.000000, 3.000000)" fill="#FFBC01">
            <path d="M35.8396974,0.659851153 C35.3472135,-0.302153873 34.4276141,0.0125118106 33.9592467,0.219445568 C33.5540264,0.398893468 18.038246,7.46528638 13.8619701,9.36749731 C13.5833613,8.3315648 13.4066129,7.67569536 13.4066129,7.67569536 C13.4066129,7.67569536 14.1412135,5.74347115 14.3122501,5.33055142 C14.4598049,4.97513084 14.5902243,3.66623533 14.5902243,3.25805455 C14.5902243,2.86472244 14.3734933,2.73297988 14.0859995,2.73297988 L11.3538564,2.73297988 C10.3615902,2.73297988 9.30395572,3.62105743 8.76006567,3.62105743 C8.75879639,3.62105743 8.75720978,3.62042557 8.75562316,3.62042557 C8.75435388,3.62042557 8.75276727,3.62105743 8.75149798,3.62105743 C8.20729061,3.62105743 7.14965612,2.73297988 6.15738997,2.73297988 L3.42556418,2.73297988 C3.13807038,2.73297988 2.9213394,2.86472244 2.9213394,3.25805455 C2.9213394,3.66623533 3.05175877,4.97513084 3.19931354,5.33055142 C3.37035014,5.74347115 4.10495076,7.67569536 4.10495076,7.67569536 C4.10495076,7.67569536 0.28407559,21.8625051 0.0997114613,22.6311614 C-0.0846526673,23.3998176 -0.00817804601,24.0898074 0.286296844,24.4483873 C0.578233158,24.8041238 0.995194372,25 1.4597539,25 L8.75562316,25 L16.0518098,25 C16.5163693,25 16.9330132,24.8041238 17.2252668,24.4483873 C17.5197417,24.0898074 17.5962163,23.3998176 17.4118522,22.6311614 C17.2887312,22.1177761 15.5425078,15.615949 14.3969751,11.355641 C18.1991283,9.71059664 34.6148341,2.60945149 35.0470268,2.41041596 C35.5360201,2.18547423 36.3455087,1.64839425 35.8396974,0.659851153" id="Fill-1"></path>
        </g>
    </g>
</svg>