<?xml version="1.0" encoding="UTF-8"?>
<svg width="26px" height="30px" viewBox="0 0 26 30" version="1.1" xmlns="http://www.w3.org/2000/svg" xmlns:xlink="http://www.w3.org/1999/xlink">
    <!-- Generator: Sketch 48.2 (47327) - http://www.bohemiancoding.com/sketch -->
    <title>Fill 3</title>
    <desc>Created with Sketch.</desc>
    <defs></defs>
    <g id="эспрессо-copy" stroke="none" stroke-width="1" fill="none" fill-rule="evenodd">
        <g id="Page-1" fill="#2C231A">
            <g id="Group-5">
                <path d="M22.4159325,9.77133333 C22.1065325,10.8343333 21.0145325,11.4396667 19.9771325,11.1223333 C18.9400575,10.805 18.3498575,9.68466667 18.6595825,8.62133333 C18.9153575,7.74133333 19.7067325,7.17633333 20.5595325,7.187 C20.6216075,7.18766667 20.7399075,7.22933333 20.6966825,7.37633333 C20.6534575,7.524 20.2810075,8.80533333 20.2810075,8.80533333 L20.9615575,9.01366667 C20.9615575,9.01366667 21.3600075,7.645 21.3837325,7.563 C21.4214325,7.434 21.5075575,7.45033333 21.5452575,7.473 C22.2963325,7.93366667 22.6775575,8.87166667 22.4159325,9.77133333 Z M9.8624825,4.00366667 L11.0159075,4.00366667 L11.0159075,2.91966667 L9.8624825,2.91966667 L9.8624825,4.00366667 Z M23.4702325,4.00366667 L12.6409075,4.00366667 L12.6409075,2.88833333 L13.8599825,2.88833333 C14.2386075,2.88833333 14.3296075,2.68833333 14.3296075,2.286 L14.3296075,0.879666667 C14.3296075,0.478 14.2386075,0.278 13.8599825,0.278 L7.0180825,0.278 C6.6401075,0.278 6.5491075,0.478 6.5491075,0.879666667 L6.5491075,2.286 C6.5491075,2.68833333 6.6401075,2.88833333 7.0180825,2.88833333 L8.2374825,2.88833333 L8.2374825,4.00366667 L7.4340825,4.00366667 C6.1760075,4.00366667 5.1564825,5.05 5.1564825,6.34033333 L5.1564825,13.6 C5.1564825,13.949 5.4249325,14.0676667 5.6079075,14.0676667 C5.7028075,14.0676667 6.6420575,14.0673333 7.9453075,14.067 L7.9453075,15.3636667 L6.5718575,15.3636667 L0.2106325,15.3636667 C0.0409825,15.3636667 3.25e-05,15.4536667 3.25e-05,15.6333333 L3.25e-05,16.1306667 L3.25e-05,16.628 C3.25e-05,16.808 0.0409825,16.8976667 0.2106325,16.8976667 L6.5718575,16.8976667 L8.0662075,16.8976667 C8.3444075,17.8106667 9.0798825,18.5143333 9.9970325,18.7323333 L9.9970325,19.656 C9.9970325,19.8686667 10.0958325,19.949 10.2619075,19.949 L10.9473325,19.949 C11.0835075,19.949 11.1992075,19.863 11.1992075,19.656 L11.1992075,18.7323333 C12.3744075,18.453 13.2509325,17.375 13.2509325,16.0843333 L13.2509325,14.065 C15.2483825,14.0643333 16.9097825,14.0636667 17.1229825,14.0636667 C17.7229325,14.0636667 18.2439075,14.5576667 18.2439075,15.232 L18.2439075,24.9173333 C18.2439075,25.0993333 18.0804325,25.3303333 17.8542325,25.3303333 L7.4899825,25.3303333 C7.4714575,25.33 7.4529325,25.3273333 7.4340825,25.3273333 C7.4155575,25.3273333 7.3970325,25.33 7.3785075,25.3303333 L6.2956075,25.3303333 C5.7525325,25.3303333 5.1564825,25.7843333 5.1564825,26.4986667 L5.1564825,29.537 C5.1564825,29.8566667 5.4090075,30 5.6082325,30 L25.2970575,30 C25.5934575,30 25.7481575,29.7653333 25.7481575,29.537 L25.7481575,6.34033333 C25.7481575,5.05 24.7279825,4.00366667 23.4702325,4.00366667 Z" id="Fill-3"></path>
            </g>
        </g>
    </g>
</svg>