<?xml version="1.0" encoding="UTF-8"?>
<svg width="22px" height="27px" viewBox="0 0 22 27" version="1.1" xmlns="http://www.w3.org/2000/svg" xmlns:xlink="http://www.w3.org/1999/xlink">
    <!-- Generator: Sketch 48.2 (47327) - http://www.bohemiancoding.com/sketch -->
    <title>Fill 4</title>
    <desc>Created with Sketch.</desc>
    <defs></defs>
    <g id="1200_list_classiс" stroke="none" stroke-width="1" fill="none" fill-rule="evenodd" transform="translate(-700.000000, -1253.000000)">
        <g id="вкус" transform="translate(129.000000, 843.000000)" fill="#2C231A">
            <g id="ссылки" transform="translate(23.000000, 387.000000)">
                <g id="ссылка" transform="translate(338.000000, 0.000000)">
                    <g id="иконка" transform="translate(210.000000, 20.000000)">
                        <g id="Group-6" transform="translate(0.000000, 3.000000)">
                            <path d="M9.11379683,26.2603687 C8.08992381,25.6096688 7.13449524,24.2829563 7.13449524,22.9518562 C7.13449524,21.8121188 7.3911619,20.6980312 7.82627302,19.8826312 C8.4359873,23.0429813 12.6034159,26.9998312 16.3123365,26.9998312 C20.0212571,26.9998312 21.8350349,24.5175188 21.8350349,21.0206813 C21.8350349,17.5248562 19.0228762,15.2099438 19.9290667,12.1265438 C17.7147492,12.2544563 16.5710984,14.5163813 16.5710984,16.0523438 C16.5710984,17.0142188 16.8235746,17.2872562 16.932527,17.5471312 C14.0966222,16.0844063 16.0574159,11.4397313 16.0574159,8.48728125 C16.0574159,5.30668125 13.9084,1.94585625 11.6581143,0.23101875 C10.8060508,7.05493125 6.25309841,9.45286875 6.79925714,13.2443438 C5.07313016,12.0229313 5.9276381,8.89160625 3.08509841,8.55410625 C3.33652698,10.9520437 -0.00013968254,15.4583438 -0.00013968254,19.9862437 C-0.00013968254,22.8593812 2.01128889,27.1999688 9.11379683,26.2603687" id="Fill-4"></path>
                        </g>
                    </g>
                </g>
            </g>
        </g>
    </g>
</svg>