<?xml version="1.0" encoding="UTF-8"?>
<svg width="14px" height="14px" viewBox="0 0 14 14" version="1.1" xmlns="http://www.w3.org/2000/svg" xmlns:xlink="http://www.w3.org/1999/xlink">
    <!-- Generator: Sketch 48.2 (47327) - http://www.bohemiancoding.com/sketch -->
    <title>insta_red</title>
    <desc>Created with Sketch.</desc>
    <defs></defs>
    <g id="footer-1200" stroke="none" stroke-width="1" fill="none" fill-rule="evenodd" transform="translate(-795.000000, -73.000000)">
        <path d="M805.953417,76.9087431 C805.461324,76.9087431 805.062427,76.5107014 805.062427,76.0197293 C805.062427,75.5287277 805.461324,75.130686 805.953417,75.130686 C806.445509,75.130686 806.844406,75.5287277 806.844406,76.0197293 C806.844406,76.5107014 806.445509,76.9087431 805.953417,76.9087431 Z M801.989919,77.5049059 C803.35682,77.5049059 804.464943,78.6105416 804.464943,79.9744412 C804.464943,81.3383114 803.35682,82.4439471 801.989919,82.4439471 C800.623018,82.4439471 799.514896,81.3383114 799.514896,79.9744412 C799.514896,78.6105416 800.623018,77.5049059 801.989919,77.5049059 Z M801.989913,83.7788237 C799.884137,83.7788237 798.17708,82.0755225 798.17708,79.9744148 C798.17708,77.873307 799.884137,76.1700352 801.989913,76.1700352 C804.09569,76.1700352 805.802777,77.873307 805.802777,79.9744148 C805.802777,82.0755225 804.09569,83.7788237 801.989913,83.7788237 M808.017484,73.9824846 C807.718731,73.6837006 807.434282,73.4986589 807.035748,73.3437823 C806.734845,73.2268303 806.282742,73.087753 805.450242,73.0497662 C804.549901,73.0086943 804.279848,73 801.999984,73 C799.72012,73 799.450068,73.0086943 798.549696,73.0497662 C797.717227,73.087753 797.265124,73.2268303 796.964252,73.3437823 C796.565687,73.4986589 796.281269,73.6837006 795.982485,73.9824846 C795.683701,74.2812686 795.498659,74.5657179 795.343751,74.9642524 C795.22683,75.2651243 795.087753,75.7172579 795.049766,76.5497272 C795.008694,77.450068 795,77.7201204 795,79.9999844 C795,82.2798796 795.008694,82.5499008 795.049766,83.4502728 C795.087753,84.2827421 795.22683,84.7348757 795.343751,85.0357476 C795.498659,85.4342821 795.683701,85.7187314 795.982485,86.0175154 C796.281269,86.3162994 796.565687,86.5013411 796.964252,86.6562177 C797.265124,86.7731386 797.717227,86.912247 798.549727,86.9502338 C799.449943,86.9913057 799.719965,87 801.999984,87 C804.280004,87 804.550025,86.9913057 805.450242,86.9502338 C806.282742,86.912247 806.734845,86.7731386 807.035748,86.6562177 C807.434282,86.5013411 807.718731,86.3162994 808.017515,86.0174843 C808.316268,85.7187314 808.501341,85.4342821 808.656218,85.0357476 C808.773139,84.7348757 808.912247,84.2827421 808.950234,83.4502728 C808.991306,82.5499008 809,82.2798796 809,79.9999844 C809,77.7201204 808.991306,77.450068 808.950234,76.5497272 C808.912247,75.7172579 808.773139,75.2651243 808.656218,74.9642524 C808.501341,74.5657179 808.316268,74.2812686 808.017484,73.9824846" id="insta_red" fill="#FFFFFF"></path>
    </g>
</svg>