<?xml version="1.0" encoding="UTF-8"?>
<svg width="21px" height="30px" viewBox="0 0 21 30" version="1.1" xmlns="http://www.w3.org/2000/svg" xmlns:xlink="http://www.w3.org/1999/xlink">
    <!-- Generator: Sketch 48.2 (47327) - http://www.bohemiancoding.com/sketch -->
    <title>Fill 1</title>
    <desc>Created with Sketch.</desc>
    <defs></defs>
    <g id="мокка" stroke="none" stroke-width="1" fill="none" fill-rule="evenodd" transform="translate(-5.000000, 0.000000)">
        <g id="Page-1" transform="translate(5.000000, 0.000000)" fill="#2C231A">
            <g id="Group-3">
                <path d="M20.4986578,4.98747621 C20.1574078,4.59208497 19.6337203,4.39195667 18.9420328,4.39195667 L16.6638609,4.39195667 L15.9196734,4.39195667 C15.6138609,4.03062291 14.8982203,3.62712274 13.2799078,3.18307793 C12.2000484,2.88629123 11.0273297,2.66767458 10.0537828,2.57134053 C10.1075953,2.45522071 10.1518922,2.32645096 10.1817516,2.18989664 L10.3415484,1.45620099 C10.4481891,0.967394908 10.2096422,0.449072339 9.81097031,0.304409094 C9.41229844,0.159421491 8.75998594,0.159421491 8.36131406,0.304409094 C7.96264219,0.449072339 7.72376719,0.967394908 7.83073594,1.45620099 L7.99053281,2.18989664 C8.02039219,2.32645096 8.06436094,2.45522071 8.11850156,2.57134053 C7.14495469,2.66767458 5.97223594,2.88629123 4.89204844,3.18307793 C3.81612656,3.47856721 2.72412656,3.84768553 2.26573594,4.39195667 L1.58848594,4.39195667 L0.551282813,4.39195667 C0.314704688,4.39195667 0.156548438,4.49445349 0.156548438,4.7730762 C0.156548438,5.44709016 1.73909531,6.68224181 2.28607969,9.04193937 C2.34907969,9.333212 2.60665781,10.9845138 2.83372031,12.4412013 C2.96562656,13.2890706 3.09720469,14.1291554 3.19695469,14.7519209 C3.31639219,15.4930768 3.84795469,15.8709527 4.33193906,16.0075071 L4.33193906,18.5186794 C3.93687656,18.746378 3.64878281,19.1427423 3.56937656,19.6218177 C2.93872031,23.4356079 2.24079844,27.6292202 2.17222031,27.9620106 C2.08198594,28.4031362 2.21487656,28.906214 2.51937656,29.2743592 C2.82157969,29.6395853 3.25240781,29.8406866 3.73278281,29.8406866 L15.4940953,29.8406866 C15.9744703,29.8406866 16.4052984,29.6395853 16.7078297,29.2743592 C17.0123297,28.906214 17.1452203,28.4031362 17.0546578,27.9620106 C16.9854234,27.6227331 16.2586266,23.2572115 15.6575016,19.6214933 C15.5780953,19.1427423 15.2900016,18.746378 14.8952672,18.5186794 L14.8952672,16.0075071 C15.3792516,15.8709527 15.9108141,15.4927524 16.0299234,14.7519209 C16.1175328,14.2057036 16.2737203,13.2280915 16.4495953,12.1252775 C16.8423609,9.66211005 17.3315953,6.59726026 17.3900016,6.27322757 C18.4002984,6.27322757 19.2790172,6.22781758 19.0030641,7.58298135 C18.7254703,8.94690275 17.8500328,13.1109986 17.7502828,13.5277974 C17.6672672,13.8745351 17.7847359,13.9724909 18.0882516,14.0075215 C18.3005484,14.0321726 18.9394078,14.1340207 19.1415328,14.1619154 C19.4112516,14.1988921 19.6173141,14.1995409 19.6642359,13.9261079 C19.6737516,13.8716159 20.6384391,8.23429031 20.8609078,6.85447541 C20.9908453,6.04520456 20.8691109,5.41692495 20.4986578,4.98747621" id="Fill-1"></path>
            </g>
        </g>
    </g>
</svg>