<?xml version="1.0" encoding="UTF-8"?>
<svg width="20px" height="12px" viewBox="0 0 20 12" version="1.1" xmlns="http://www.w3.org/2000/svg" xmlns:xlink="http://www.w3.org/1999/xlink">
    <!-- Generator: Sketch 48.2 (47327) - http://www.bohemiancoding.com/sketch -->
    <title>Page 1 Copy 39</title>
    <desc>Created with Sketch.</desc>
    <defs>
        <polygon id="path-1" points="13.6458032 12 0.00035 12 0.00035 0.346338462 13.6458032 0.346338462 13.6458032 12"></polygon>
    </defs>
    <g id="1200_list_classiс" stroke="none" stroke-width="1" fill="none" fill-rule="evenodd" transform="translate(-852.000000, -214.000000)">
        <g id="покупка" transform="translate(599.000000, 185.000000)">
            <g id="цифра" transform="translate(253.000000, 0.000000)">
                <g id="Page-1-Copy-39" transform="translate(0.000000, 29.000000)">
                    <g id="Group-3">
                        <mask id="mask-2" fill="white">
                            <use xlink:href="#path-1"></use>
                        </mask>
                        <g id="Clip-2"></g>
                        <path d="M13.582975,0.494030769 C13.53835,0.427569231 13.448225,0.346338462 13.2706,0.346338462 L12.420975,0.346338462 C12.212725,0.346338462 12.046475,0.470953846 11.976475,0.677723077 C11.94585,0.768184615 10.7821,4.30541538 10.26235,5.88295385 C10.019975,4.28695385 9.487975,0.789415385 9.47835,0.713723077 C9.45035,0.537415385 9.293725,0.346338462 9.055725,0.346338462 L8.180725,0.346338462 C8.00485,0.346338462 7.86135,0.456184615 7.7896,0.649107692 C7.758975,0.741415385 5.650225,6.7968 5.629225,6.85310769 C4.79885,9.04356923 4.089225,10.3091077 2.932475,10.3091077 C2.1791,10.3091077 1.607725,9.65464615 1.607725,8.78695385 C1.607725,7.45310769 2.573725,6.58818462 4.1216,6.53003077 C4.3001,6.52264615 4.4296,6.43772308 4.51535,6.27618462 L4.552975,6.1968 C4.6571,5.98172308 4.775225,5.7408 4.906475,5.45926154 C4.962475,5.33095385 4.95635,5.19064615 4.892475,5.0808 C4.85135,5.01064615 4.752475,4.89341538 4.524975,4.88603077 C1.189475,4.89341538 0.00035,6.91218462 0.00035,8.79618462 C0.00035,10.8804923 1.479975,12.0001846 2.871225,12.0001846 C5.181225,12.0001846 6.206725,9.86326154 6.98985,7.85003077 C6.98985,7.85003077 7.78785,5.53310769 8.406475,3.76818462 C8.7241,5.88849231 9.1581,8.74264615 9.216725,8.88295385 C9.291975,9.05372308 9.444225,9.16633846 9.6061,9.16633846 L10.579975,9.16633846 C10.875725,9.16633846 10.954475,8.93187692 10.98335,8.85433846 C11.047225,8.66695385 13.581225,0.989723077 13.6171,0.876184615 C13.6766,0.685107692 13.63285,0.562338462 13.582975,0.494030769" id="Fill-1" fill="#2D2319" mask="url(#mask-2)"></path>
                    </g>
                    <path d="M18.6353183,8 L13.7412683,8 C13.5348927,8 13.3285171,8.1868932 13.2619443,8.44296117 L13.0203802,9.40048544 C12.9813876,9.54975728 12.9994574,9.70145631 13.0650791,9.81796117 C13.1335539,9.9368932 13.2410214,10 13.3656076,10 L18.2596577,10 C18.4660333,10 18.674311,9.8131068 18.7389817,9.55703883 L18.9805457,8.60194175 C19.0176363,8.4526699 19.0014686,8.29854369 18.9339448,8.18203883 C18.867372,8.06432039 18.7599045,8 18.6353183,8" id="Fill-4" fill="#2D2319"></path>
                    <path d="M16.4676911,4.55508877 C16.1949988,4.55508877 15.9755147,4.46483263 15.8329926,4.29326467 C15.62301,4.04038488 15.597356,3.64358314 15.7588811,3.17197452 L15.8073386,3.05081989 C15.8538958,2.93047838 15.9071041,2.80200569 15.970764,2.66865429 C16.3954799,1.81081447 16.8591519,1.44572435 17.5195044,1.44572435 C17.7931469,1.44572435 18.0116808,1.53598049 18.1561032,1.70754845 C18.3660858,1.95717577 18.3898395,2.35235127 18.2292646,2.82395989 L18.1827074,2.94592763 C18.1380504,3.06545602 18.083892,3.19555495 18.0173817,3.33053259 C17.5926658,4.18674617 17.1280436,4.55508877 16.4676911,4.55508877 M19.5794242,0.807426481 C19.1623094,0.278086462 18.4477985,0 17.5195044,0 C16.118987,0 15.0738247,0.704160455 14.4191731,2.09215341 C13.8547855,3.29882098 13.8604864,4.45507521 14.4353256,5.18688169 C14.8590914,5.71784795 15.5603003,6 16.4676911,6 C17.8739094,6 18.9171714,5.29502643 19.5689726,3.903781 C20.1400112,2.67922483 20.1438118,1.52215747 19.5794242,0.807426481" id="Fill-6" fill="#2D2319"></path>
                </g>
            </g>
        </g>
    </g>
</svg>