<?xml version="1.0" encoding="UTF-8"?>
<svg width="26px" height="29px" viewBox="0 0 26 29" version="1.1" xmlns="http://www.w3.org/2000/svg" xmlns:xlink="http://www.w3.org/1999/xlink">
    <!-- Generator: Sketch 48.2 (47327) - http://www.bohemiancoding.com/sketch -->
    <title>Fill 14</title>
    <desc>Created with Sketch.</desc>
    <defs></defs>
    <g id="1200_list_classiс" stroke="none" stroke-width="1" fill="none" fill-rule="evenodd" transform="translate(-641.000000, -196.000000)">
        <g id="покупка" transform="translate(599.000000, 185.000000)" fill="#2C231A">
            <g id="иконки" transform="translate(1.000000, 10.000000)">
                <g id="Page-1" transform="translate(41.000000, 0.000000)">
                    <g id="Group-17" transform="translate(0.000000, 0.787200)">
                        <g id="Group-16">
                            <path d="M12.5967,0.2129 C12.5777,0.1839 -0.0003,8.0159 -0.0003,16.7149 C-0.0003,20.2989 2.9507,23.5819 6.5347,23.5819 C8.9627,23.5819 10.6197,22.3029 11.6867,21.1599 C10.0107,25.0899 6.6037,28.9999 6.6037,28.9999 L12.5967,28.9999 L18.5897,28.9999 C18.5897,28.9999 15.1837,25.0899 13.5077,21.1619 C14.5747,22.3049 16.2307,23.5819 18.6587,23.5819 C22.2427,23.5819 25.1927,20.2989 25.1927,16.7149 C25.1927,7.6429 12.6147,0.1839 12.5967,0.2129" id="Fill-14"></path>
                        </g>
                    </g>
                </g>
            </g>
        </g>
    </g>
</svg>