<?xml version="1.0" encoding="UTF-8"?>
<svg width="24px" height="30px" viewBox="0 0 24 30" version="1.1" xmlns="http://www.w3.org/2000/svg" xmlns:xlink="http://www.w3.org/1999/xlink">
    <!-- Generator: Sketch 48.2 (47327) - http://www.bohemiancoding.com/sketch -->
    <title>Fill 1</title>
    <desc>Created with Sketch.</desc>
    <defs></defs>
    <g id="мокка-copy" stroke="none" stroke-width="1" fill="none" fill-rule="evenodd" transform="translate(-6.000000, 0.000000)">
        <g id="Page-1" transform="translate(6.000000, 0.000000)" fill="#2C231A">
            <path d="M13.3673212,19.3696829 L9.24097073,19.3696829 L9.24097073,9.60943542 L13.142868,9.60943542 C13.2849982,9.60943542 13.3673212,9.65794839 13.3673212,9.82387682 L13.3673212,19.3696829 Z M8.03040104,19.3696829 L3.90440239,19.3696829 L3.90440239,12.6720804 C3.90440239,11.8484145 3.69331788,10.8707727 2.84124005,10.1304226 C2.66287364,9.97504043 2.61784228,9.60943542 3.08469086,9.60943542 L8.03040104,9.60943542 L8.03040104,19.3696829 Z M19.2213984,9.61013851 L19.1629983,9.59572523 C17.8792527,9.33980173 17.1070352,9.69732124 16.6859216,10.0432398 C16.1592657,10.4738803 15.857063,11.1449764 15.857063,11.8856781 C15.857063,12.2966322 15.8584703,12.941011 15.8609329,13.5171905 C15.8612847,13.8437742 15.8633956,14.0905575 15.8633956,14.3162483 C15.8633956,14.4885045 15.9253137,14.6087323 16.1086054,14.6087323 L17.213281,14.6087323 C17.4120523,14.6087323 17.4539174,14.4776067 17.4539174,14.3717922 C17.4539174,14.1496168 17.4521584,13.8258455 17.4507511,13.5119173 C17.4496957,12.9381987 17.4479367,12.5093159 17.4479367,12.1004711 C17.4479367,11.9654785 17.4479367,11.6550657 17.6460043,11.4262111 C17.8479418,11.194544 18.2943856,11.1843493 18.8361692,11.2873515 C19.9580834,11.6128805 22.1452707,12.4864656 22.1452707,15.6661745 C22.1452707,19.0504816 18.6271955,21.4891373 16.7735216,22.8889826 C16.4160852,23.1582648 16.1342874,23.3713 15.9256655,23.5488294 C15.670605,23.7681924 15.2185324,24.191802 14.8807972,24.7050552 L14.8807972,20.8816705 L14.8807972,8.50488645 C14.8807972,8.29220277 14.8273224,8.09322928 14.5391921,8.09322928 C14.4575727,8.09322928 14.3302184,8.09604162 14.2837798,8.09604162 C14.9712117,7.61794277 13.3687284,4.0016171 9.24097073,3.95310413 L9.24097073,3.43914786 C9.92277371,3.19130985 10.4107308,2.54060325 10.4107308,1.77388737 C10.4107308,0.794487801 9.61599755,0 8.63550998,0 C7.65537422,0 6.86099283,0.794487801 6.86099283,1.77388737 C6.86099283,2.54095479 7.34894986,3.19130985 8.03040104,3.43914786 L8.03040104,3.95556493 C4.00044585,4.07930816 2.43842044,7.62286437 3.11811258,8.09604162 L3.08469086,8.09604162 C2.33604445,8.09604162 0.607262273,8.76924699 0.0644232625,9.9659003 C-0.00523462738,10.1198763 -0.125904608,10.4327498 0.38456811,10.5543837 C2.05072855,10.9801027 2.39092642,11.8255642 2.39092642,12.6720804 L2.39092642,20.8816705 L2.39092642,28.0802222 C2.39092642,28.3073191 2.32056492,28.358996 2.18300818,28.4623497 C2.09505629,28.5305491 1.28554718,29.0968853 1.14693502,29.1907474 C0.981585479,29.3046474 0.972086676,29.4266329 0.972086676,29.5208465 L0.972086676,29.7873163 C0.972086676,29.9061379 1.0526506,30 1.18070854,30 L2.39092642,30 L14.8807972,30 L16.0843307,30 C16.1729862,30 16.2992851,29.9244182 16.2992851,29.7714969 L16.2992851,29.5208465 C16.2992851,29.4266329 16.2767694,29.3746045 16.1553958,29.2765239 C16.1332319,29.2603529 16.0590006,29.2023483 15.959439,29.1253603 L15.959439,26.4174225 C15.959439,26.2817268 16.19902,25.7804261 16.9103748,25.1733108 C17.0831123,25.0256627 17.3620956,24.8140336 17.6861104,24.5700626 C19.735741,23.0229206 24,19.8031358 24,15.6661745 C24,11.3087956 20.3422572,9.9293398 19.2213984,9.61013851 Z" id="Fill-1"></path>
        </g>
    </g>
</svg>