<?xml version="1.0" encoding="UTF-8"?>
<svg width="22px" height="12px" viewBox="0 0 22 12" version="1.1" xmlns="http://www.w3.org/2000/svg" xmlns:xlink="http://www.w3.org/1999/xlink">
    <!-- Generator: Sketch 48.2 (47327) - http://www.bohemiancoding.com/sketch -->
    <title>vk_red</title>
    <desc>Created with Sketch.</desc>
    <defs></defs>
    <g id="footer-1200" stroke="none" stroke-width="1" fill="none" fill-rule="evenodd" transform="translate(-715.000000, -74.000000)">
        <path d="M727.089701,85.9495383 C727.089701,85.9495383 727.486995,85.9079457 727.689918,85.69924 C727.877292,85.5068742 727.871072,85.1466525 727.871072,85.1466525 C727.871072,85.1466525 727.845415,83.4599239 728.664882,83.211111 C729.472687,82.9660117 730.510627,84.8413925 731.609988,85.5625785 C732.441895,86.1084815 733.073989,85.9889027 733.073989,85.9889027 L736.01443,85.9495383 C736.01443,85.9495383 737.552292,85.8589259 736.823013,84.7039884 C736.763147,84.6096623 736.397729,83.8491118 734.63673,82.287161 C732.79254,80.6524231 733.03978,80.9168332 735.261049,78.0885361 C736.613092,76.3668994 737.154221,75.3152007 736.984729,74.8651093 C736.82379,74.4358142 735.829389,74.5494511 735.829389,74.5494511 L732.518089,74.568762 C732.518089,74.568762 732.272404,74.5368248 732.090473,74.6408063 C731.913207,74.7425596 731.798917,74.9802317 731.798917,74.9802317 C731.798917,74.9802317 731.274116,76.3126805 730.575936,77.4460789 C729.101828,79.8376537 728.511718,79.9639169 728.270698,79.8153719 C727.710133,79.469262 727.85008,78.4257333 727.85008,77.6837509 C727.85008,75.365706 728.218607,74.3994207 727.134018,74.1491223 C726.774043,74.0666798 726.508921,74.0117182 725.588381,74.0028055 C724.407384,73.9909219 723.407541,74.0057764 722.841533,74.2709292 C722.464454,74.4469551 722.173675,74.8398566 722.350941,74.8621384 C722.569414,74.8903619 723.065448,74.9898871 723.328238,75.3315406 C723.66722,75.7727193 723.655558,76.7627718 723.655558,76.7627718 C723.655558,76.7627718 723.850706,79.4908011 723.199953,79.8302264 C722.753678,80.0619566 722.141799,79.588098 720.827075,77.4178554 C720.153774,76.3067387 719.6453,75.0782714 719.6453,75.0782714 C719.6453,75.0782714 719.547337,74.8487693 719.372404,74.725477 C719.160151,74.5769319 718.86393,74.5293975 718.86393,74.5293975 L715.717455,74.5494511 C715.717455,74.5494511 715.245523,74.5620774 715.072144,74.7581569 C714.917425,74.9326973 715.059705,75.2936616 715.059705,75.2936616 C715.059705,75.2936616 717.522771,80.7987399 720.311603,83.5728181 C722.869523,86.1166515 725.773422,85.9495383 725.773422,85.9495383 L727.089701,85.9495383 Z" id="vk_red" fill="#FFFFFF"></path>
    </g>
</svg>