<?xml version="1.0" encoding="UTF-8"?>
<svg width="20px" height="15px" viewBox="0 0 20 15" version="1.1" xmlns="http://www.w3.org/2000/svg" xmlns:xlink="http://www.w3.org/1999/xlink">
    <!-- Generator: Sketch 48.2 (47327) - http://www.bohemiancoding.com/sketch -->
    <title>Youtube_red</title>
    <desc>Created with Sketch.</desc>
    <defs></defs>
    <g id="footer-1200" stroke="none" stroke-width="1" fill="none" fill-rule="evenodd" transform="translate(-755.000000, -73.000000)">
        <path d="M762.935,82.6957983 L762.934375,77.036559 L768.338125,79.8759349 L762.935,82.6957983 Z M774.8,76.0559011 C774.8,76.0559011 774.604375,74.6679996 774.005,74.0568194 C773.244375,73.2542913 772.391875,73.2505147 772.00125,73.2039366 C769.2025,73 765.004375,73 765.004375,73 L764.995625,73 C764.995625,73 760.7975,73 757.99875,73.2039366 C757.6075,73.2505147 756.755625,73.2542913 755.994375,74.0568194 C755.395,74.6679996 755.2,76.0559011 755.2,76.0559011 C755.2,76.0559011 755,77.6861347 755,79.3157388 L755,80.8440041 C755,82.4742376 755.2,84.1038418 755.2,84.1038418 C755.2,84.1038418 755.395,85.4917433 755.994375,86.1029235 C756.755625,86.9054516 757.755,86.8802743 758.2,86.963989 C759.8,87.1188297 765,87.1666667 765,87.1666667 C765,87.1666667 769.2025,87.1603723 772.00125,86.9564358 C772.391875,86.9092282 773.244375,86.9054516 774.005,86.1029235 C774.604375,85.4917433 774.8,84.1038418 774.8,84.1038418 C774.8,84.1038418 775,82.4742376 775,80.8440041 L775,79.3157388 C775,77.6861347 774.8,76.0559011 774.8,76.0559011 L774.8,76.0559011 Z" id="Youtube_red" fill="#FFFFFF"></path>
    </g>
</svg>